Coordinates
version=1
nRows=13
nColumns=38
inDegrees=no

Units are S.I. units (second, meters, Newtons, ...)
If the header above contains a line with 'inDegrees', this indicates whether rotational values are in degrees (yes) or radians (no).

endheader
time	pelvis_tilt	pelvis_list	pelvis_rotation	pelvis_tx	pelvis_ty	pelvis_tz	hip_flexion_r	hip_adduction_r	hip_rotation_r	knee_angle_r	ankle_angle_r	subtalar_angle_r	mtp_angle_r	hip_flexion_l	hip_adduction_l	hip_rotation_l	knee_angle_l	ankle_angle_l	subtalar_angle_l	mtp_angle_l	lumbar_extension	lumbar_bending	lumbar_rotation	arm_flex_r	arm_add_r	arm_rot_r	elbow_flex_r	pro_sup_r	wrist_flex_r	wrist_dev_r	arm_flex_l	arm_add_l	arm_rot_l	elbow_flex_l	pro_sup_l	wrist_flex_l	wrist_dev_l
1.15	-0.424574	1.43702	-1.1061	0.610831	0.39173	0.969623	-0.134322	0.0953972	-0.199543	0.0860099	0.0378149	0	0	0.362802	-0.155646	-0.0392166	1.17908	0.0339779	0	0	-0.223317	0.107009	0.0196221	0.00409509	-0.195048	0.0973764	0.465894	1.11248	0	0	-0.121912	-0.204847	0.331957	0.710591	0.960675	0	0
1.16	-0.400693	1.43719	-1.13423	0.610004	0.382554	0.969802	-0.152912	0.0944776	-0.188819	0.0738113	0.0381818	0	0	0.369351	-0.15407	-0.0503173	1.1448	0.0478316	0	0	-0.22632	0.10277	0.0265326	0.0134476	-0.196866	0.101893	0.462767	1.11453	0	0	-0.127493	-0.203335	0.325198	0.711301	0.961326	0	0
1.17	-0.37909	1.43761	-1.15951	0.609272	0.373343	0.969815	-0.170576	0.0934044	-0.178964	0.0625766	0.0393094	0	0	0.375197	-0.15334	-0.0630752	1.10842	0.0607174	0	0	-0.228744	0.0988043	0.0328589	0.0222138	-0.198498	0.105103	0.460616	1.11618	0	0	-0.132722	-0.202068	0.320058	0.711089	0.960844	0	0
1.18	-0.358535	1.43847	-1.18334	0.60864	0.364117	0.969661	-0.186769	0.0918701	-0.170428	0.0529293	0.0414795	0	0	0.380409	-0.153039	-0.0777644	1.06986	0.0712674	0	0	-0.230545	0.0948428	0.0385617	0.030978	-0.199824	0.108461	0.457853	1.11894	0	0	-0.137809	-0.201111	0.31621	0.710813	0.958777	0	0
1.19	-0.338501	1.43954	-1.20643	0.608101	0.354888	0.96936	-0.201959	0.0899986	-0.162333	0.0445299	0.0438253	0	0	0.384602	-0.152998	-0.0943119	1.02897	0.0805702	0	0	-0.231943	0.0908408	0.043644	0.0396818	-0.200947	0.1113	0.455383	1.12192	0	0	-0.142724	-0.200234	0.312694	0.710831	0.95736	0	0
1.2	-0.31767	1.44065	-1.23045	0.607634	0.345707	0.968956	-0.215869	0.0876106	-0.154984	0.0383203	0.0468895	0	0	0.387509	-0.15322	-0.112861	0.985927	0.0883234	0	0	-0.233604	0.086691	0.0487482	0.0480085	-0.201948	0.112602	0.454129	1.12464	0	0	-0.147105	-0.19938	0.309249	0.711533	0.957823	0	0
1.21	-0.293849	1.44131	-1.25786	0.607225	0.336584	0.968519	-0.229146	0.0846113	-0.147868	0.034094	0.050388	0	0	0.388468	-0.153629	-0.133951	0.940652	0.0948614	0	0	-0.236198	0.0822236	0.0541302	0.05631	-0.202757	0.11268	0.45362	1.12756	0	0	-0.150787	-0.198677	0.30715	0.710725	0.956101	0	0
1.22	-0.267885	1.44195	-1.28625	0.607049	0.327382	0.967993	-0.24196	0.081258	-0.14258	0.0308694	0.0543116	0	0	0.388371	-0.152588	-0.154727	0.893511	0.100178	0	0	-0.238571	0.0777913	0.0580531	0.0644722	-0.203343	0.112086	0.453046	1.13093	0	0	-0.153851	-0.198071	0.308197	0.70628	0.952475	0	0
1.23	-0.239871	1.44283	-1.31538	0.607091	0.318112	0.967339	-0.254045	0.0776934	-0.139461	0.0286283	0.0586506	0	0	0.387812	-0.150223	-0.175795	0.844928	0.104016	0	0	-0.240532	0.0733159	0.0604713	0.0722553	-0.203713	0.110983	0.452706	1.13414	0	0	-0.156667	-0.197758	0.311044	0.700614	0.947914	0	0
1.24	-0.211151	1.44397	-1.34438	0.607316	0.308785	0.966556	-0.264967	0.0739605	-0.138215	0.0280197	0.0639362	0	0	0.386955	-0.147171	-0.197936	0.79558	0.106854	0	0	-0.242045	0.0688808	0.0616695	0.0796809	-0.203991	0.11007	0.452891	1.13626	0	0	-0.159307	-0.197286	0.312117	0.696136	0.94426	0	0
1.25	-0.176028	1.44442	-1.37938	0.607661	0.299387	0.965762	-0.276257	0.0694586	-0.137863	0.0283713	0.0699887	0	0	0.384202	-0.143006	-0.22166	0.745547	0.109491	0	0	-0.244278	0.0637396	0.0620312	0.0873849	-0.203725	0.10836	0.452422	1.13935	0	0	-0.161309	-0.197244	0.315762	0.689583	0.937773	0	0
1.26	-0.137635	1.44474	-1.41693	0.608173	0.289898	0.964902	-0.287367	0.0645245	-0.138692	0.029466	0.0767454	0	0	0.380665	-0.137417	-0.244928	0.695338	0.11231	0	0	-0.246393	0.0582817	0.0617069	0.0945323	-0.203276	0.106022	0.452203	1.14237	0	0	-0.162844	-0.197571	0.321779	0.681903	0.930902	0	0
1.27	-0.105052	1.44605	-1.44756	0.608942	0.280318	0.963833	-0.29681	0.0602312	-0.141022	0.031412	0.0842759	0	0	0.378123	-0.130666	-0.265073	0.644118	0.115638	0	0	-0.246739	0.0538228	0.060126	0.101034	-0.203255	0.105292	0.452246	1.14442	0	0	-0.164779	-0.197538	0.325546	0.675852	0.925878	0	0
